<?xml version="1.0" encoding="UTF-8" standalone="no"?>
<!-- Created with Inkscape (http://www.inkscape.org/) -->

<svg
   width="835.72723"
   height="520.31525"
   viewBox="0 0 221.1195 137.66674"
   version="1.1"
   id="svg5"
   inkscape:version="1.1.2 (0a00cf5339, 2022-02-04)"
   sodipodi:docname="logo.svg"
   inkscape:export-filename="C:\Users\FrancescoCottone\Desktop\KesieV\stuff-2023\boards\images\og-image.png"
   inkscape:export-xdpi="96"
   inkscape:export-ydpi="96"
   xmlns:inkscape="http://www.inkscape.org/namespaces/inkscape"
   xmlns:sodipodi="http://sodipodi.sourceforge.net/DTD/sodipodi-0.dtd"
   xmlns="http://www.w3.org/2000/svg"
   xmlns:svg="http://www.w3.org/2000/svg">
  <sodipodi:namedview
     id="namedview7"
     pagecolor="#ffffff"
     bordercolor="#666666"
     borderopacity="1.0"
     inkscape:pageshadow="2"
     inkscape:pageopacity="0.0"
     inkscape:pagecheckerboard="0"
     inkscape:document-units="mm"
     showgrid="false"
     inkscape:zoom="0.5"
     inkscape:cx="487"
     inkscape:cy="336"
     inkscape:window-width="1298"
     inkscape:window-height="708"
     inkscape:window-x="68"
     inkscape:window-y="28"
     inkscape:window-maximized="1"
     inkscape:current-layer="layer1"
     units="px"
     fit-margin-top="0"
     fit-margin-left="0"
     fit-margin-right="0"
     fit-margin-bottom="0" />
  <defs
     id="defs2" />
  <g
     inkscape:label="Livello 1"
     inkscape:groupmode="layer"
     id="layer1"
     transform="translate(-39.823842,-203.15787)">
    <path
       style="fill:#ffffff;stroke-width:1"
       d="m 50.133963,226.12579 c -0.291809,0.18859 -0.371393,0.34288 -0.176855,0.34288 0.19454,0 0.592463,-0.15429 0.884272,-0.34288 0.29181,-0.18858 0.371394,-0.34288 0.176854,-0.34288 -0.194539,0 -0.592462,0.1543 -0.884271,0.34288 z"
       id="path3159-5" />
    <path
       style="fill:#ffffff;stroke-width:1"
       d="m 101.7754,222.48703 c -6.068114,0.13577 -23.224457,1.47837 -37.942429,2.96925 -5.900784,0.59773 -7.451325,0.65732 -7.878558,0.30274 -0.292555,-0.24279 -0.634185,-0.33918 -0.759175,-0.21419 -0.124996,0.125 -0.03219,0.22726 0.206276,0.22726 0.238445,0 0.342446,0.14738 0.231116,0.32751 -0.197553,0.31966 -5.977298,0.97253 -7.504498,0.84771 -0.915478,-0.0749 -1.391503,0.88949 -0.748404,1.51607 0.364881,0.35552 1.226642,0.3477 4.345923,-0.0394 15.652508,-1.94265 45.246712,-4.41405 52.913019,-4.41874 2.23592,-10e-4 2.79378,-0.12032 3.32663,-0.70907 0.49408,-0.54596 0.52677,-0.71325 0.14324,-0.73299 -0.27332,-0.014 -1.05404,-0.0539 -1.73493,-0.0884 -0.68089,-0.0345 -2.75008,-0.029 -4.59821,0.012 z"
       id="path3157-0" />
    <path
       style="fill:#ffffff;stroke-width:1"
       d="m 203.46659,220.1127 c -0.12019,0.19454 0.0389,0.35371 0.3537,0.35371 0.31478,0 0.47394,-0.15917 0.3537,-0.35371 -0.12018,-0.19454 -0.2794,-0.35372 -0.3537,-0.35372 -0.0743,0 -0.23348,0.15918 -0.3537,0.35372 z"
       id="path3155-4" />
    <path
       style="fill:#ffffff;stroke-width:1"
       d="m 179.81682,219.29766 c -0.26651,0.26652 -0.70973,0.38535 -2.87837,0.7717 -1.01622,0.18104 0.0301,0.31425 3.71393,0.47286 6.5565,0.28226 16.62431,-0.0535 16.62431,-0.55449 0,-0.22761 0.16345,-0.2067 0.42445,0.0543 0.50559,0.5056 4.88117,0.58018 4.88117,0.0831 0,-0.91248 -1.79218,-1.07356 -11.94388,-1.07356 -5.81656,0 -10.68628,0.11069 -10.82161,0.24604 z"
       id="path3151-3" />
    <path
       style="fill:#ffffff;stroke-width:1"
       d="m 114.45966,219.74727 -0.83503,0.69566 8.84271,0.0594 c 11.15031,0.0749 19.70955,0.003 19.87908,-0.1662 0.0719,-0.0719 -0.4163,-0.39035 -1.08491,-0.70762 -1.03607,-0.49166 -2.71305,-0.57687 -11.35219,-0.57687 -6.71502,0 -10.06223,0.12019 -9.91639,0.35621 0.39359,0.63683 -0.96012,0.85813 -1.4181,0.23182 -0.61395,-0.83962 -3.05474,-0.7758 -4.11517,0.10762 z"
       id="path3149-3" />
    <path
       style="fill:#ffffff;stroke-width:1"
       d="m 91.032954,219.31583 c -3.368308,0.11203 -3.470591,0.13917 -2.900699,0.76889 0.555746,0.6141 1.248958,0.64436 11.707909,0.51124 10.323886,-0.13141 12.900196,-0.35467 12.900196,-1.11789 0,-0.42049 -5.00811,-0.46643 -5.50924,-0.0505 -0.24928,0.20689 -0.7444,0.21971 -1.25079,0.0324 -0.46887,-0.17344 -1.30087,-0.17736 -1.8883,-0.009 -0.64185,0.18409 -1.18631,0.165 -1.40041,-0.0491 -0.33241,-0.33241 -3.541864,-0.3561 -11.658666,-0.0861 z"
       id="path3147-2" />
    <path
       style="fill:#ffffff;stroke-width:1"
       d="m 246.33008,213.81232 c -0.11297,0.28216 -0.19673,0.19835 -0.2137,-0.21371 -0.0154,-0.37286 0.0682,-0.58177 0.18577,-0.46423 0.11751,0.11751 0.13008,0.42261 0.0279,0.67794 z"
       id="path3145-2" />
    <path
       style="fill:#ffffff;stroke-width:1"
       d="m 247.70678,203.44534 c -0.14528,0.23507 0.0155,0.40821 0.39462,0.42474 0.49409,0.0215 0.519,0.0723 0.10936,0.22302 -0.97192,0.35736 -1.83659,1.32415 -2.69073,3.0085 -0.80051,1.57855 -0.82453,1.8103 -0.44929,4.33324 0.50142,1.43974 -0.41139,3.7065 0.0466,3.53347 0.31638,-0.12138 0.7442,0.0738 1.02273,0.46658 0.26336,0.3714 0.7176,0.76744 1.00941,0.8801 0.2918,0.1127 -0.30509,0.2174 -1.32641,0.23276 -1.262,0.019 -1.85871,-0.11377 -1.86238,-0.41423 -0.004,-0.33157 -0.0801,-0.32434 -0.30404,0.0289 -0.16424,0.25908 -0.27921,0.81617 -0.2555,1.23799 0.0408,0.7251 0.19655,0.76314 2.85607,0.69749 3.16707,-0.0782 5.34088,-0.76408 6.57086,-2.07334 l 0.83329,-0.88698 -1.96243,0.23064 c -1.22112,0.14352 -2.24349,0.0802 -2.70649,-0.16757 -0.60799,-0.32539 -0.8082,-0.28458 -1.09464,0.22311 -0.28553,0.50605 -0.43555,0.53714 -0.80864,0.1676 -0.37425,-0.37071 -0.32223,-0.48924 0.28435,-0.64787 0.48331,-0.12633 0.88634,-0.67459 1.15486,-1.5708 0.84527,-2.82123 4.57166,-4.23362 5.54761,-2.10268 0.22275,0.48636 0.75418,1.61591 1.18095,2.51013 0.52532,1.10067 0.69951,1.93048 0.53925,2.56897 -0.14188,0.56532 -0.0619,1.15385 0.1998,1.46911 0.24009,0.28928 0.28342,0.52597 0.0963,0.52597 -0.49559,0 -1.17713,-1.66922 -0.93703,-2.29492 0.3673,-0.95716 -0.3827,-0.53665 -1.11283,0.62393 -0.39147,0.6223 -1.35256,1.48492 -2.13574,1.91694 -2.60176,1.4352 -5.63944,1.64607 -18.90555,1.31228 -10.60143,-0.26673 -23.60705,-0.33295 -26.086,-0.13288 -1.51149,0.12205 -0.79078,0.69686 0.88428,0.70528 0.92407,0.005 4.54516,0.1608 8.04686,0.34702 22.33257,1.18763 33.01038,1.17055 35.70483,-0.0571 0.65157,-0.29688 1.03085,-0.3178 1.19461,-0.0659 0.48821,0.75091 1.70006,1.17249 2.13117,0.74139 0.22434,-0.22435 0.40789,-0.26106 0.40789,-0.0816 0,0.17946 0.27245,-0.0627 0.60544,-0.53809 l 0.60545,-0.86438 0.23098,0.87411 0.23099,0.87411 0.37912,-0.88427 c 0.20852,-0.48635 0.38574,-0.64553 0.39378,-0.3537 0.0446,1.61881 -3.17725,6.74131 -4.12854,6.56381 -0.33898,-0.0632 -1.93036,-0.22968 -3.53641,-0.36986 -1.60604,-0.1402 -3.00816,-0.39742 -3.11581,-0.57161 -0.10762,-0.1742 -0.35492,-0.31672 -0.54946,-0.31672 -0.19454,0 -0.24479,0.17621 -0.11163,0.39159 0.158,0.25566 0.012,0.31875 -0.42127,0.18172 -2.12079,-0.67114 -32.33888,-3.28528 -43.18644,-3.73604 -7.60062,-0.31585 -28.3866,-0.0515 -39.84418,0.50685 l -4.19776,0.20453 -2.96483,2.1071 c -2.93816,2.08815 -3.67443,2.44773 -2.20082,1.07485 0.70109,-0.65315 0.70836,-0.70051 0.0885,-0.57479 -0.37158,0.0754 -0.98024,0.25733 -1.3526,0.40441 -1.31557,0.51964 -0.16773,-0.59098 3.16887,-3.0661 3.20609,-2.3783 3.35535,-2.44604 5.38975,-2.44604 1.1508,0 3.32984,-0.10454 4.84231,-0.23247 2.61048,-0.22066 2.70271,-0.25721 1.81835,-0.72057 -0.54249,-0.28424 -2.5922,-0.5708 -4.90728,-0.68607 l -3.97566,-0.19792 -3.47126,2.5102 c -1.9092,1.38062 -3.55593,2.51022 -3.65942,2.51022 -0.10347,0 -1.51749,-0.87542 -3.14221,-1.9454 -1.62473,-1.06996 -3.12158,-1.94539 -3.32632,-1.94539 -0.97646,0 -0.15035,1.17328 2.01527,2.86219 3.29667,2.57099 4.3394,3.56164 4.12093,3.91511 -0.1028,0.16625 -0.42826,0.0608 -0.72334,-0.23424 -0.80461,-0.8046 -1.34812,-0.23597 -0.59097,0.61827 0.58176,0.65636 -3.88728,-2.33313 -5.22353,-3.49418 -0.66558,-0.57832 -14.18006,-1.17325 -26.90171,-1.18427 -7.44938,-0.007 -8.0659,0.0416 -8.84272,0.68872 l -0.83502,0.69566 3.18337,0.0107 c 1.75086,0.005 9.62972,0.18456 17.50857,0.39783 11.8723,0.32136 14.47661,0.48205 15.20947,0.93851 0.48635,0.3029 2.35893,1.64764 4.16131,2.98829 l 3.27702,2.43754 2.3283,-1.69424 c 1.28057,-0.93184 3.14845,-2.27627 4.15085,-2.98763 l 1.82254,-1.29337 14.14835,-0.38913 c 7.78158,-0.21401 17.09904,-0.38805 20.70546,-0.38674 10.53282,0.004 29.39074,1.4228 51.45106,3.87144 l 9.19641,1.0208 0.62937,-0.76482 c 1.14084,-1.38638 3.47066,-5.44744 4.2266,-7.36729 0.5784,-1.469 0.7781,-2.92214 0.90226,-6.56575 0.21481,-6.30307 0.0864,-6.86432 -1.78372,-7.79545 -4.47266,-2.22694 -10.80846,-3.87261 -11.37574,-2.95476 z"
       id="path3143-6" />
    <path
       style="fill:#ffffff;stroke-width:1"
       d="m 50.133963,204.90328 c 0,0.19454 -0.07019,0.35372 -0.155978,0.35372 -0.08579,0 -0.254352,-0.15918 -0.374585,-0.35372 -0.120236,-0.19454 -0.05004,-0.3537 0.155979,-0.3537 0.20602,0 0.374584,0.15916 0.374584,0.3537 z"
       id="path3141-7" />
    <path
       style="fill:#ffffff;stroke-width:1"
       d="m 49.072838,204.23429 c -1.653587,0.59139 -3.285067,1.16157 -3.625512,1.26709 -0.340444,0.10547 -0.61899,0.31978 -0.61899,0.47618 0,0.1564 -0.466509,0.38682 -1.036684,0.51204 -0.570177,0.12527 -1.185351,0.41643 -1.367051,0.64711 -0.504222,0.64011 -0.778173,7.64633 -0.40576,10.37711 0.357821,2.62379 3.12119,8.83603 4.097075,9.21052 0.996995,0.38258 1.405016,-0.51847 0.714658,-1.57821 -0.681554,-1.0462 -2.355946,-4.553 -2.355946,-4.93421 0,-0.12887 0.198961,0.0286 0.442135,0.34992 0.868514,1.14778 5.570908,1.59721 5.570908,0.53244 0,-0.19614 0.342727,-0.26699 0.761613,-0.15745 0.418887,0.10949 1.206825,-0.031 1.750977,-0.31246 1.237912,-0.64014 1.504499,-0.64351 1.263669,-0.0159 -0.116426,0.30338 0.10906,0.58184 0.581146,0.71767 1.810825,0.52107 8.784694,0.61727 16.68825,0.23021 4.66895,-0.22864 10.156551,-0.49736 12.194664,-0.59714 2.038115,-0.0997 3.736163,-0.21192 3.773448,-0.24921 0.03728,-0.0373 -0.11886,-0.32303 -0.346979,-0.635 -0.377593,-0.51639 -1.468671,-0.52727 -12.175309,-0.12139 -6.818842,0.25852 -13.432047,0.33133 -15.738481,0.17329 -2.187864,-0.14992 -4.090837,-0.20905 -4.228826,-0.13142 -0.137992,0.0777 -0.535914,-0.008 -0.884271,-0.19138 -0.34836,-0.18292 -1.295135,-0.50863 -2.103946,-0.7238 -3.176327,-0.84502 -4.690379,-3.91498 -3.590236,-7.27974 0.415759,-1.27159 0.593409,-1.42574 1.754705,-1.52257 1.030773,-0.086 1.54601,0.11524 2.547461,0.99449 0.690446,0.60622 1.353281,1.41075 1.472969,1.78785 0.119689,0.3771 0.525222,0.68563 0.901193,0.68563 0.716889,0 0.825436,0.2799 0.468883,1.20905 -0.273877,0.71371 -0.846428,0.72777 -0.846428,0.0207 0,-0.46985 -0.114448,-0.46373 -0.895371,0.048 -0.668105,0.43777 -1.341452,0.53385 -2.652812,0.37853 -1.869579,-0.22142 -2.144917,0.005 -1.125508,0.9282 1.271459,1.15066 3.286507,1.70335 6.186959,1.69697 3.183379,-0.007 3.424793,-0.16677 3.433235,-2.27225 0.0048,-1.19999 -0.08354,-1.33837 -0.790428,-1.23798 -0.569828,0.0809 -0.827628,0.38928 -0.907764,1.08572 -0.09679,0.84115 -0.264218,0.96892 -1.23798,0.94478 -0.619334,-0.0154 -0.927371,-0.10815 -0.684532,-0.20613 0.273129,-0.11029 0.359682,-0.5043 0.226936,-1.0332 -0.161098,-0.64186 -0.07109,-0.85499 0.361055,-0.85499 0.420835,0 0.521773,-0.21465 0.37533,-0.79813 -0.156464,-0.6234 0.03523,-0.93727 0.875513,-1.43365 1.138061,-0.67226 1.677696,-1.95368 1.256903,-2.98463 -0.232252,-0.56904 -0.275828,-0.56186 -0.532179,0.0877 -0.238951,0.60539 -0.392651,0.45238 -1.065825,-1.06113 -0.432636,-0.9727 -1.137258,-2.24605 -1.56583,-2.82967 -0.42857,-0.58361 -0.88188,-1.33967 -1.007357,-1.68011 -0.344608,-0.93498 -2.424598,-0.76584 -5.90968,0.48055 z"
       id="path3139-6" />
    <path
       style="fill:#ffffff;stroke-width:1"
       d="m 46.52343,250.38811 c 0.44194,-0.21299 0.896909,-0.7593 1.01104,-1.21403 0.114127,-0.45475 0.349425,-0.82679 0.522876,-0.82679 0.177013,0 0.315363,-4.25614 0.315363,-9.70173 0,-10.84371 -0.04405,-11.05568 -2.170733,-10.44575 -0.609794,0.17488 -1.184224,0.39347 -1.27651,0.48576 -0.235513,0.23552 -0.28042,3.65146 -0.178269,13.56024 0.09385,9.10292 0.06428,8.96735 1.776233,8.1423 z"
       id="path3137-83" />
    <path
       style="fill:#ffffff;stroke-width:1"
       d="m 46.19566,324.99623 c 0.01698,0.41206 0.100786,0.49587 0.213697,0.21371 0.102176,-0.25534 0.08961,-0.56042 -0.02791,-0.67794 -0.117536,-0.11751 -0.201133,0.0914 -0.185774,0.46423 z"
       id="path3131-4" />
    <path
       style="fill:#ffffff;stroke-width:1"
       d="m 46.250458,303.00029 c 0,-0.76646 0.142701,-1.1966 0.353708,-1.06619 0.19454,0.12018 0.353709,-0.0296 0.353709,-0.33284 0,-0.30327 -0.159169,-0.55143 -0.353709,-0.55143 -0.194539,0 -0.353708,-0.2452 -0.353708,-0.54488 0,-0.74977 1.641296,0.81345 1.871907,1.78287 0.09255,0.38907 0.158638,-2.95348 0.146853,-7.42788 -0.01297,-4.92507 -0.111708,-7.15828 -0.250217,-5.65935 -0.138339,1.49712 -0.253482,-1.11657 -0.291248,-6.61115 -0.03434,-4.99791 0.05691,-9.16115 0.20282,-9.25164 0.145906,-0.0905 0.218451,2.79873 0.161214,6.42047 -0.05724,3.62174 -0.02515,6.50608 0.07129,6.40962 0.09645,-0.0964 0.201151,-3.24051 0.232674,-6.98681 0.04592,-5.45845 0.160382,-6.91454 0.576212,-7.33036 0.285396,-0.28539 0.658771,-0.43245 0.829726,-0.3268 0.170954,0.10561 1.312099,-1.02432 2.53587,-2.51106 2.628474,-3.19328 3.258507,-4.2111 1.844709,-2.98017 -0.898317,0.78214 -0.869895,0.70041 0.24604,-0.70741 0.69392,-0.87544 1.604896,-1.74882 2.02439,-1.94085 0.419495,-0.19203 0.762719,-0.48281 0.762719,-0.64616 0,-0.64396 -9.05501,-11.88425 -9.585774,-11.89916 -1.202142,-0.0337 -2.794021,0.76623 -2.794021,1.40408 0,0.35384 0.119381,0.69639 0.265281,0.76124 0.145905,0.0648 0.71337,0.71777 1.261035,1.45093 0.547664,0.73318 1.123274,1.25423 1.279132,1.1579 0.417197,-0.25784 1.528467,1.09485 1.575408,1.91766 0.04985,0.8737 2.980436,4.69388 3.401295,4.43377 0.167343,-0.10347 0.419438,-0.001 0.560208,0.22609 0.159848,0.25864 0.10263,0.31937 -0.152414,0.16174 -0.224597,-0.1388 -0.408359,-0.0662 -0.408359,0.1615 0,0.43392 -4.131482,5.80754 -6.441555,8.37821 l -1.347321,1.49932 0.09207,15.82762 c 0.08581,14.75053 0.134194,15.83572 0.71106,15.94676 0.497774,0.0958 0.61899,-0.13248 0.61899,-1.16564 z"
       id="path3125-1" />
    <path
       style="fill:#ffffff;stroke-width:1"
       d="m 163.4221,323.37508 c -0.38909,0.1672 -1.13574,0.31517 -1.65925,0.32883 -0.52349,0.0136 -1.04083,0.1689 -1.14963,0.34494 -0.1119,0.18098 0.45543,0.24829 1.30554,0.1549 2.34505,-0.25763 3.09502,-0.46006 3.09502,-0.83541 0,-0.4137 -0.61938,-0.41108 -1.59168,0.007 z"
       id="path3121-9" />
    <path
       style="fill:#ffffff;stroke-width:1"
       d="m 255.0363,305.25525 c 0.23345,-0.23345 0.42689,-0.9895 0.42987,-1.68011 0.004,-0.83833 0.10641,-1.09617 0.30949,-0.77578 0.63973,1.00962 0.91599,-0.54265 1.04494,-5.8715 0.0735,-3.03972 0.26829,-5.30642 0.44643,-5.19633 0.47203,0.29173 0.40271,-10.2295 -0.0704,-10.7027 -0.27951,-0.2795 -0.27606,-0.59282 0.012,-1.13188 0.29735,-0.55562 0.29616,-0.74538 -0.005,-0.74538 -0.62369,0 -0.28839,-5.60075 0.35928,-6.00103 0.35599,-0.22001 0.39908,-0.44991 0.14638,-0.78091 -0.19697,-0.258 -1.97739,-2.47965 -3.95647,-4.93699 -1.97909,-2.45735 -3.59835,-4.56456 -3.59835,-4.68268 0,-0.11818 0.71626,-1.15662 1.59168,-2.30773 1.67922,-2.20801 1.99849,-2.90761 0.97271,-2.13141 -0.53436,0.40435 -0.55612,0.39817 -0.15917,-0.0452 0.25289,-0.28243 0.63756,-0.51351 0.8548,-0.51351 0.21722,0 0.46867,-0.22112 0.55876,-0.49136 0.11323,-0.3398 0.0134,-0.4007 -0.32424,-0.19739 -0.55601,0.33494 -0.3148,-0.012 1.89012,-2.72057 l 1.3358,-1.64077 v -4.26297 c 0,-2.34463 0.14038,-4.34972 0.31194,-4.45576 0.17157,-0.10601 0.32123,-0.86549 0.33258,-1.68767 0.0144,-1.04694 -0.0774,-1.33988 -0.30653,-0.97764 -0.21575,0.34111 -0.31475,-0.38609 -0.29072,-2.13556 0.0254,-1.84916 0.11136,-2.33135 0.28388,-1.5917 0.16792,0.72012 0.33786,-0.33659 0.52877,-3.2881 0.25291,-3.90978 0.2179,-4.41932 -0.34649,-5.04298 -0.63506,-0.70172 -2.65163,-1.85155 -2.86794,-1.63525 -0.0646,0.0646 -0.12366,5.45443 -0.13128,11.97744 l -0.0139,11.86002 -4.39949,5.44423 c -2.41973,2.99433 -4.40403,5.60546 -4.40957,5.80251 -0.005,0.19704 0.33311,0.51538 0.75252,0.70741 0.41942,0.19203 1.17239,0.90625 1.67329,1.58713 l 0.91072,1.23799 -0.87061,-0.70742 -0.87063,-0.70742 0.92278,1.23798 c 0.50752,0.6809 1.14113,1.24156 1.40801,1.24592 0.26688,0.004 0.43846,0.28291 0.3813,0.61898 -0.0599,0.35226 0.11951,0.61107 0.42362,0.61107 0.29015,0 1.39737,1.07109 2.46048,2.38022 1.49458,1.84043 1.85975,2.51699 1.61022,2.98327 -0.3973,0.74237 -0.43614,31.77589 -0.0397,31.77589 0.15564,0 0.47397,-0.191 0.70742,-0.42445 z"
       id="path3117-7" />
    <path
       style="fill:#ffffff;stroke-width:1"
       d="m 99.224004,319.434 c 0,0.75449 1.470296,1.1164 8.718956,2.14611 7.85732,1.11617 16.71609,1.98666 23.64537,2.32345 2.33447,0.1135 4.93797,0.29202 5.78553,0.3968 0.88552,0.10949 1.45645,0.0536 1.34219,-0.13128 -0.22772,-0.36846 -4.6609,-1.01807 -9.07312,-1.32952 -4.83382,-0.34122 -12.87793,-1.19605 -18.21598,-1.93579 -2.72356,-0.37742 -6.30486,-0.84019 -7.95844,-1.0284 -1.65359,-0.18819 -3.28507,-0.44979 -3.625516,-0.58135 -0.35327,-0.1365 -0.61899,-0.0765 -0.61899,0.13994 z"
       id="path3115-6" />
    <path
       style="fill:#ffffff;stroke-width:1"
       d="m 164.00864,320.14431 c -0.60584,2.02215 -0.54317,2.17012 0.91672,2.16481 2.70946,-0.009 3.58406,-0.68366 2.02699,-1.56158 -0.36968,-0.20845 -0.96864,-0.73712 -1.33102,-1.17483 -0.9046,-1.09263 -1.13896,-1.00956 -1.61269,0.5716 z"
       id="path3113-0" />
    <path
       style="fill:#ffffff;stroke-width:1"
       d="m 119.39981,319.1306 c -0.86749,0.76159 -1.50003,1.46193 -1.40566,1.55631 0.27764,0.27764 17.66183,1.72764 17.66183,1.47316 0,-0.56484 -0.51519,-1.26095 -0.93322,-1.26095 -0.2771,0 -0.59544,-0.23876 -0.70741,-0.53057 -0.11198,-0.29181 -0.35514,-0.53055 -0.54034,-0.53055 -0.18521,0 -0.23837,0.15916 -0.11814,0.3537 0.12023,0.19454 -0.0568,0.3537 -0.39341,0.3537 -0.33661,0 -0.90309,0.26343 -1.25886,0.5854 -0.58965,0.53363 -0.70156,0.53606 -1.26583,0.0275 -0.34044,-0.30681 -1.0567,-0.64982 -1.59169,-0.76225 -0.53498,-0.11243 -1.37712,-0.28865 -1.87143,-0.39163 -0.4943,-0.10294 -0.80325,-0.34173 -0.68654,-0.53057 0.1167,-0.18883 -0.20452,-0.34333 -0.71383,-0.34333 -1.10775,0 -0.84136,-0.69138 0.28616,-0.74267 1.58859,-0.0723 -0.90929,-0.60077 -2.93897,-0.62183 -1.77133,-0.0183 -2.08653,0.10374 -3.52266,1.36453 z"
       id="path3111-0" />
    <path
       style="fill:#ffffff;stroke-width:1"
       d="m 175.33551,317.74437 c -0.64559,0.1351 -1.75977,0.70944 -2.47595,1.27627 -0.71621,0.56684 -1.92723,1.41096 -2.6912,1.87581 -0.76397,0.46485 -1.20041,0.90805 -0.96989,0.9849 0.50591,0.16864 11.83556,-0.96768 12.07939,-1.21153 0.29769,-0.29769 -2.90787,-2.7682 -3.85905,-2.97417 -0.50022,-0.10828 -1.43772,-0.0864 -2.0833,0.0487 z"
       id="path3109-5" />
    <path
       style="fill:#ffffff;stroke-width:1"
       d="m 189.59652,316.17886 c -0.38908,0.0822 -1.0492,0.2219 -1.46696,0.3103 -0.41773,0.0884 -1.43888,0.72829 -2.26919,1.42199 -0.83031,0.69371 -1.83185,1.48695 -2.22565,1.76279 -0.39379,0.27582 -0.62344,0.59404 -0.51033,0.70715 0.28108,0.28107 12.40701,-1.25211 12.79768,-1.61812 0.34892,-0.32689 -1.76828,-1.74893 -2.39251,-1.60694 -0.21777,0.0495 -0.26994,0.0211 -0.11591,-0.0632 0.15402,-0.0844 0.0948,-0.37657 -0.13168,-0.64946 -0.3906,-0.47065 -2.12269,-0.59496 -3.68539,-0.26449 z"
       id="path3107-4" />
    <path
       style="fill:#ffffff;stroke-width:1"
       d="m 107.09402,317.59628 c -0.24318,0.0981 -0.6411,0.0981 -0.88427,0 -0.24318,-0.0981 -0.0442,-0.1784 0.44213,-0.1784 0.48635,0 0.68531,0.0802 0.44214,0.1784 z"
       id="path3105-6" />
    <path
       style="fill:#ffffff;stroke-width:1"
       d="m 105.8486,316.3334 c -0.34454,0.20058 -0.51891,0.53867 -0.38749,0.75131 0.13358,0.21614 0.0772,0.28666 -0.12784,0.15994 -0.47525,-0.29372 -2.36085,1.18148 -1.97842,1.54782 0.3495,0.33479 12.45896,1.90533 12.71519,1.6491 0.0987,-0.0987 -0.80833,-0.97859 -2.01555,-1.95539 -1.81743,-1.47054 -2.5717,-1.84161 -4.38561,-2.1575 -2.65473,-0.4623 -3.01886,-0.46184 -3.82028,0.005 z"
       id="path3103-8" />
    <path
       style="fill:#ffffff;stroke-width:1"
       d="m 205.28831,315.60585 c -2.2077,0.38192 -3.79645,0.86591 -4.50978,1.37385 -1.46601,1.04389 -1.38981,1.44532 0.2251,1.18587 4.38547,-0.7046 9.05209,-1.73189 9.07791,-1.99838 0.0166,-0.17081 -0.28827,-0.49966 -0.67734,-0.73078 -0.55671,-0.33068 -1.43362,-0.29458 -4.11589,0.16944 z"
       id="path3101-0" />
    <path
       style="fill:#ffffff;stroke-width:1"
       d="m 203.3816,315.25523 c -0.11497,0.18604 0.11871,0.33826 0.51924,0.33826 0.85406,0 0.94022,-0.1967 0.20905,-0.47728 -0.28558,-0.10962 -0.6133,-0.0471 -0.72829,0.13902 z"
       id="path3099-6" />
    <path
       style="fill:#ffffff;stroke-width:1"
       d="m 205.42498,313.86003 c -0.43773,0.1627 -0.79585,0.37554 -0.79585,0.47297 0,0.0975 0.27854,0.0727 0.619,-0.0548 0.55006,-0.20614 0.56288,-0.16305 0.1151,0.38706 -0.45878,0.5636 -0.42711,0.59979 0.35372,0.4042 0.47168,-0.11818 1.2047,-0.24078 1.62894,-0.27252 0.42425,-0.0317 0.69769,-0.17686 0.60766,-0.32253 -0.09,-0.14566 -0.42345,-0.16515 -0.74093,-0.0433 -0.35972,0.13804 -0.48952,0.0795 -0.34442,-0.15524 0.32769,-0.53021 -0.49657,-0.76768 -1.44319,-0.4158 z"
       id="path3097-2" />
    <path
       style="fill:#ffffff;stroke-width:1"
       d="m 57.456652,312.23774 c -0.451021,0.45103 -1.042361,0.48258 -3.765152,0.20088 -3.234725,-0.33467 -5.069446,-0.14044 -5.303395,0.56141 -0.06866,0.20595 0.533501,0.46278 1.338128,0.5707 0.804624,0.10789 1.837134,0.54775 2.294461,0.97739 0.457331,0.42963 1.065186,0.69148 1.350794,0.58189 0.566214,-0.21728 1.01234,0.54877 0.737179,1.26583 -0.115584,0.30121 0.480106,0.60029 1.812748,0.91012 1.091701,0.25381 2.063801,0.38258 2.16023,0.28615 0.342425,-0.34242 0.567072,-5.88941 0.238515,-5.88941 -0.180653,0 -0.56923,0.24076 -0.863508,0.53504 z"
       id="path3095-4" />
    <path
       style="fill:#ffffff;stroke-width:1"
       d="m 236.63975,310.84162 c -4.34853,1.2414 -23.98833,6.13735 -24.13192,6.01576 -0.0439,-0.0372 0.67241,-0.68562 1.59169,-1.44109 0.91929,-0.75546 1.38157,-1.03941 1.02731,-0.631 l -0.64411,0.74255 3.12008,-0.69198 c 1.71603,-0.38059 6.30345,-1.46497 10.19423,-2.40977 9.93808,-2.41323 11.57615,-2.78236 12.3798,-2.78971 0.38908,-0.004 -1.2026,0.53879 -3.53708,1.20524 z"
       id="path3093-43" />
    <path
       style="fill:#ffffff;stroke-width:1"
       d="m 242.56437,309.46096 c -0.24317,0.0981 -0.6411,0.0981 -0.88428,0 -0.24317,-0.0981 -0.0442,-0.17841 0.44214,-0.17841 0.48635,0 0.68531,0.0804 0.44214,0.17841 z"
       id="path3091-4" />
    <path
       style="fill:#ffffff;stroke-width:1"
       d="m 235.22491,308.51929 c 0.12018,0.19454 -0.11858,0.35371 -0.53056,0.35371 -0.41204,0 -0.6508,-0.15917 -0.53057,-0.35371 0.12019,-0.19454 0.35899,-0.3537 0.53057,-0.3537 0.17158,0 0.41032,0.15916 0.53056,0.3537 z"
       id="path3089-2" />
    <path
       style="fill:#ffffff;stroke-width:1"
       d="m 195.25586,301.98089 c -1.16724,1.06067 -2.25866,1.93112 -2.42538,1.93434 -0.16672,0.003 -0.22124,0.21925 -0.12112,0.48007 0.10013,0.26081 0.0448,0.69607 -0.12272,0.96722 -0.28835,0.46655 0.83268,2.09565 1.44207,2.09565 0.13262,0 0.97846,-0.56295 1.87958,-1.251 l 1.63839,-1.25101 2.33183,1.78726 c 1.28249,0.98299 2.82122,2.04032 3.41937,2.34964 l 1.08755,0.5624 -1.7752,1.02489 c -0.97636,0.5637 -2.51489,1.67601 -3.41896,2.4718 l -1.64375,1.4469 -1.2013,-1.05475 c -0.82195,-0.72168 -1.51885,-1.02968 -2.20694,-0.97538 -1.28518,0.10147 -2.95103,0.78691 -2.95103,1.2143 0,0.18125 0.83564,1.00981 1.85697,1.84126 1.02133,0.83146 2.44835,2.06697 3.17114,2.7456 l 1.31418,1.23386 1.69549,-1.58593 c 1.46174,-1.36729 6.10676,-4.95373 7.43292,-5.73897 0.27611,-0.1635 0.37657,-0.0892 0.27174,0.2011 -0.0914,0.25328 0.46141,0.92423 1.22867,1.491 1.32963,0.98222 4.10888,3.70918 3.36713,3.30379 -0.19454,-0.10628 -3.13917,0.34412 -6.54361,1.00099 -3.40445,0.65687 -8.81618,1.5184 -12.02609,1.91451 -3.2099,0.39611 -6.07494,0.79025 -6.36676,0.87586 -0.44243,0.12981 -8.10332,0.90111 -17.91659,1.80383 -1.19713,0.11016 -2.47048,0.42289 -2.82967,0.69503 -0.5997,0.45437 -0.55188,0.4956 0.58488,0.50429 3.1818,0.0243 23.22415,-2.05843 27.05871,-2.81191 0.97269,-0.19114 3.43981,-0.60177 5.48247,-0.91252 10.48878,-1.59565 31.00127,-6.13314 38.20052,-8.45017 1.45905,-0.46958 4.00575,-1.21832 5.65933,-1.66387 2.70152,-0.72792 2.89888,-0.83623 1.9454,-1.06773 -0.63033,-0.15303 0.12981,-0.21583 1.87231,-0.15469 3.56715,0.12513 4.53411,0.70634 5.55557,3.33898 0.38907,1.00277 0.90638,1.825 1.14955,1.82716 1.07152,0.009 0.008,3.41571 -1.36774,4.37907 -1.09056,0.76385 -4.12329,0.76067 -5.27401,-0.005 -1.61073,-1.07251 -2.24826,-2.24736 -1.2195,-2.24736 0.29662,0 0.6877,-0.39031 0.86907,-0.86733 0.37607,-0.98914 2.02668,-1.96234 3.32822,-1.96234 1.26906,0 1.4832,-0.64631 0.35613,-1.07483 -0.66376,-0.25236 -1.98454,-0.25216 -4.25184,7.1e-4 -1.80894,0.20166 -3.44377,0.3667 -3.63296,0.3667 -0.19882,0 -0.31666,1.15682 -0.27923,2.74124 0.0709,2.99643 0.60625,3.7735 1.6835,2.44315 0.57539,-0.71058 0.58361,-0.70896 1.20227,0.23522 0.44593,0.68059 0.5177,1.07744 0.25262,1.39686 -0.25502,0.30726 -0.25869,0.96944 -0.012,2.12691 0.87102,4.08399 5.19063,3.61262 12.10431,-1.3209 1.28835,-0.91934 2.34182,-1.85652 2.34103,-2.08262 -0.004,-1.15595 -1.14627,-7.33762 -1.61192,-8.72324 -0.29419,-0.87542 -0.92129,-2.0647 -1.39356,-2.64282 -0.83659,-1.02408 -0.85407,-1.02862 -0.67955,-0.17685 0.16374,0.79912 0.13985,0.81857 -0.27788,0.22614 -3.95436,-5.60802 -4.32268,-5.88435 -7.53119,-5.6502 -1.16724,0.0852 -2.44059,0.28154 -2.82967,0.43635 -1.44707,0.57578 -3.25403,1.08509 -5.07499,1.43043 -1.03099,0.19553 -2.38009,0.58955 -2.99798,0.87562 -0.6179,0.28606 -3.19968,1.14145 -5.7373,1.90085 -5.67067,1.69699 -7.94281,2.67284 -7.94281,3.41132 0,0.30693 -0.39292,0.73707 -0.87317,0.95589 -0.48025,0.21881 -0.7892,0.53373 -0.68654,0.69982 0.10267,0.16609 -0.0217,0.31318 -0.27638,0.32685 -0.25466,0.0136 -0.14468,0.15128 0.24441,0.30578 0.55085,0.21873 0.23772,0.37874 -1.41484,0.72293 -1.16723,0.2431 -2.55996,0.66669 -3.09494,0.94129 -0.53498,0.27459 -0.97271,0.43429 -0.97271,0.35488 0,-0.21437 4.26842,-2.93852 5.39406,-3.44257 1.22993,-0.55074 1.22026,-0.74715 -0.0648,-1.31597 -1.5554,-0.68849 -6.06899,-3.76272 -7.93161,-5.40226 l -1.64174,-1.44513 -1.32661,1.05205 c -1.5545,1.23275 -2.7915,2.5448 -2.39924,2.5448 0.15123,0 0.0769,0.23877 -0.16535,0.53057 -0.35129,0.42329 -0.35129,0.63784 0,1.06113 0.62109,0.74837 1.20318,0.66298 2.41146,-0.35372 0.57798,-0.48634 1.14391,-0.88426 1.2576,-0.88426 0.11363,0 1.32879,0.8187 2.70024,1.81934 l 2.49352,1.81933 -1.15865,0.70461 c -0.63726,0.38754 -1.80556,1.23473 -2.59625,1.88262 l -1.43759,1.17801 -0.73988,-0.73988 c -0.48555,-0.48554 -1.22779,-0.75267 -2.15928,-0.7771 -0.78067,-0.0204 -1.36358,-0.12753 -1.29534,-0.23793 0.0682,-0.11042 0.93032,-0.57835 1.9158,-1.03992 0.98546,-0.46156 1.79175,-0.9392 1.79175,-1.06141 0,-0.12219 -0.57212,-0.42906 -1.27136,-0.68191 -1.72229,-0.62279 -7.99302,-4.86911 -10.4577,-7.0816 -1.10115,-0.98847 -2.05616,-1.79223 -2.12225,-1.78615 -0.066,0.007 -1.07519,0.87887 -2.24242,1.93954 z"
       id="path3087-0" />
    <path
       style="fill:#ffffff;stroke-width:1"
       d="m 95.916632,314.74959 c 1.390849,1.0216 2.65496,2.06711 2.809138,2.32336 0.218554,0.36325 0.167938,0.37716 -0.229712,0.0631 -0.280518,-0.22152 -1.423963,-0.60469 -2.540989,-0.8515 -1.62437,-0.35889 -1.952742,-0.54296 -1.640276,-0.91946 0.294603,-0.35497 0.250906,-0.52436 -0.177693,-0.68884 -0.312604,-0.11991 -0.491489,-0.34248 -0.397522,-0.49452 0.09397,-0.15204 -0.170579,-0.36573 -0.587871,-0.47485 -0.747842,-0.19556 -1.838477,0.31972 -2.103879,0.994 -0.07478,0.19 -0.45431,0.39172 -0.843389,0.44827 -0.500197,0.0727 -0.241173,-0.30254 0.884271,-1.28102 0.875429,-0.76111 1.750856,-1.29208 1.945396,-1.17995 0.19454,0.11216 1.491677,1.03976 2.882526,2.06136 z"
       id="path3085-4" />
    <path
       style="fill:#ffffff;stroke-width:1"
       d="m 69.639694,312.0878 c 4.836182,1.16428 9.929584,2.35386 11.318671,2.64352 1.389087,0.28965 2.82409,0.61919 3.188898,0.73229 0.432068,0.13396 0.578918,0.0691 0.421259,-0.18596 -0.450204,-0.72845 0.0092,-0.39735 1.2336,0.88907 0.689068,0.72397 0.911426,1.11111 0.511524,0.8906 -0.38908,-0.21455 -4.925391,-1.42272 -10.080692,-2.68483 -10.29479,-2.52035 -19.020312,-4.90883 -16.801152,-4.59906 0.778159,0.10869 5.371711,1.1501 10.207892,2.31437 z"
       id="path3083-0" />
    <path
       style="fill:#ffffff;stroke-width:1"
       d="m 57.221124,309.46096 c -0.243174,0.0981 -0.641096,0.0981 -0.88427,0 -0.243175,-0.0981 -0.04421,-0.17841 0.442135,-0.17841 0.486349,0 0.68531,0.0804 0.442135,0.17841 z"
       id="path3081-9" />
    <path
       style="fill:#ffffff;stroke-width:1"
       d="m 72.329442,310.7497 c -0.007,0.23231 -0.40413,-0.0551 -0.882517,-0.63873 -1.134361,-1.38388 -1.114829,-2.06848 0.02214,-0.77612 0.480202,0.54584 0.867372,1.18251 0.860375,1.41485 z"
       id="path3079-5" />
    <path
       style="fill:#ffffff;stroke-width:1"
       d="m 99.599664,301.7104 c -2.514733,2.26385 -8.336396,6.30384 -10.189743,7.07126 -0.826065,0.34205 -1.502533,0.70454 -1.503261,0.80554 -7.07e-4,0.10093 0.953686,0.70866 2.120924,1.35035 1.167238,0.64169 2.122251,1.24491 2.122251,1.3405 0,0.0956 -0.188163,0.0575 -0.418144,-0.0846 -0.936195,-0.57861 -2.614061,-0.38863 -3.69216,0.41807 l -1.103783,0.82591 -0.841613,-0.90502 c -0.462889,-0.49775 -1.600635,-1.34107 -2.528326,-1.87403 l -1.686709,-0.96901 1.863562,-1.28753 c 1.024962,-0.70814 2.221329,-1.54767 2.658597,-1.86561 0.752783,-0.54735 0.859603,-0.52882 2.010224,0.34881 1.359143,1.03666 2.048198,1.15424 2.633243,0.4493 0.586979,-0.70726 -0.313029,-2.26556 -2.236166,-3.87176 l -1.607775,-1.34281 -2.388964,1.92025 c -2.683802,2.15725 -7.265901,5.18673 -7.844961,5.18673 -0.888055,0 -0.20886,0.61772 2.118831,1.92708 2.834612,1.5945 3.814728,2.46387 2.213543,1.96342 -0.549246,-0.17166 -1.679694,-0.48835 -2.512102,-0.70373 -0.83241,-0.21539 -1.419205,-0.54415 -1.303988,-0.73058 0.11521,-0.18642 -0.03845,-0.43408 -0.341467,-0.55036 -0.303025,-0.11631 -0.462887,-0.35391 -0.355254,-0.52806 0.107629,-0.17417 0.02321,-0.31665 -0.187638,-0.31665 -0.210839,0 -0.521091,-0.36232 -0.689456,-0.80516 -0.219147,-0.57639 -0.974687,-1.04116 -2.659325,-1.6359 -1.294265,-0.45691 -2.755339,-0.83075 -3.246828,-0.83075 -0.491492,0 -1.070081,-0.28255 -1.285756,-0.6279 -0.215676,-0.34535 -0.575285,-0.55763 -0.799137,-0.47174 -0.223848,0.0858 -1.826956,-0.33752 -3.562466,-0.94094 -1.73551,-0.60343 -4.026465,-1.34046 -5.091011,-1.63785 -1.064545,-0.2974 -2.337896,-0.74462 -2.829667,-0.99382 -0.491771,-0.2492 -1.689974,-0.56823 -2.662672,-0.70897 -0.972698,-0.14073 -1.966057,-0.41845 -2.207467,-0.61713 -0.48296,-0.3975 -3.628722,-0.06 -3.628722,0.38934 0,0.14976 -0.378657,0.47493 -0.841458,0.72261 -1.773707,0.94926 -4.534802,6.23531 -5.369858,10.28046 -0.219164,1.06166 -0.29563,1.13722 -0.536908,0.53056 -0.164842,-0.41448 -0.198961,-0.0229 -0.08239,0.94586 0.259067,2.15283 -0.124407,4.18291 -0.790141,4.18291 -1.025585,0 -0.467998,0.72891 1.872996,2.44847 3.100516,2.27746 6.525185,3.94445 8.244335,4.013 2.169566,-0.40252 4.227405,-1.20113 5.542767,-3.15063 0.07089,-0.22172 -0.435612,-0.752 -1.125556,-1.17841 -0.877275,-0.54219 -1.254449,-1.03249 -1.254449,-1.63072 0,-1.00627 -0.242633,-1.06558 -1.118118,-0.27328 -0.819974,0.74208 -3.879616,1.04606 -5.165915,0.51326 -1.306299,-0.54109 -2.088744,-1.73388 -1.328709,-2.02553 0.380331,-0.14596 0.538574,-0.71308 0.538574,-1.93021 0,-2.40589 0.89792,-4.46447 2.254519,-5.16872 0.65232,-0.33864 2.193485,-0.61678 3.758524,-0.67832 1.525198,-0.06 2.226019,0.001 1.648738,0.14546 -2.606003,0.64827 24.689555,7.60932 40.598328,10.35361 3.82338,0.65953 4.553035,0.65338 3.867052,-0.0326 -0.364345,-0.36435 -7.955115,-2.03072 -9.90859,-2.17519 -0.742813,-0.055 -1.052467,-0.23395 -0.934856,-0.54044 0.214139,-0.55804 -0.246955,-0.58646 3.717169,0.22919 2.970135,0.61113 5.617986,1.01075 7.929963,1.19684 0.417369,0.0336 1.092985,0.36352 1.501365,0.73317 0.73724,0.66733 0.7557,0.65971 2.60138,-1.07404 1.02238,-0.96038 2.45575,-2.19692 3.18527,-2.74789 0.72953,-0.55097 1.3254,-1.10225 1.32417,-1.22507 -0.005,-0.53236 -2.19545,-1.4463 -2.76506,-1.15386 -0.32611,0.16743 -0.79703,0.23135 -1.04648,0.14208 -0.24945,-0.0893 -0.98038,0.2395 -1.6243,0.73063 l -1.17075,0.89298 -0.85166,-0.82519 c -0.46841,-0.45386 -1.926933,-1.53771 -3.241162,-2.40856 l -2.389498,-1.58337 2.230895,-1.45348 c 1.226994,-0.79942 2.690802,-1.93352 3.252905,-2.52024 l 1.02201,-1.06674 0.90514,0.83993 c 0.49782,0.46196 1.31672,1.10047 1.81976,1.4189 0.87059,0.55111 0.96095,0.53917 1.87701,-0.24797 0.86666,-0.7447 0.90596,-0.87379 0.39504,-1.29781 -0.37397,-0.31037 -0.43776,-0.55096 -0.18715,-0.70583 0.22073,-0.13643 -0.55115,-1.03871 -1.84022,-2.15114 -1.22124,-1.05388 -2.27349,-2.03658 -2.33833,-2.18378 -0.22246,-0.50495 -0.64992,-0.26468 -2.512962,1.41249 z"
       id="path3077-1" />
    <path
       style="fill:#ffffff;stroke-width:1"
       d="m 179.75641,300.87201 c -2.35763,2.14214 -2.77749,3.4142 -1.56094,4.72919 0.9442,1.02062 1.0541,1.008 2.53334,-0.29078 l 1.23759,-1.08663 2.40024,1.91103 c 1.32011,1.05107 2.99809,2.2699 3.72882,2.70853 1.19982,0.72018 1.48891,1.44449 0.5765,1.44449 -0.5531,0 -4.27201,2.64007 -5.40197,3.83489 l -1.0209,1.07949 -1.10135,-0.81101 c -0.60574,-0.44605 -1.49926,-0.78325 -1.98562,-0.7493 -0.89905,0.0627 -3.18338,1.10532 -3.18338,1.45291 0,0.10481 0.51731,0.61686 1.14956,1.13786 0.63225,0.52099 1.9799,1.72257 2.99478,2.67019 l 1.84525,1.72293 2.2224,-1.93536 c 3.38835,-2.95068 7.6033,-5.95604 10.44735,-7.4492 1.40975,-0.74013 2.56069,-1.45639 2.55767,-1.59168 -0.003,-0.1353 -0.83215,-0.64392 -1.8425,-1.13027 -2.67719,-1.28871 -7.52271,-4.58914 -10.63001,-7.24043 -1.48882,-1.27033 -2.75225,-2.30238 -2.80763,-2.29345 -0.0553,0.009 -1.02701,0.85791 -2.1592,1.8866 z"
       id="path3075-9" />
    <path
       style="fill:#ffffff;stroke-width:1"
       d="m 114.78215,300.95035 c -4.52615,3.80655 -11.33455,8.27639 -12.60648,8.27639 -0.9222,0 -0.14666,0.65587 2.28884,1.93569 2.75159,1.44593 8.35135,5.54298 10.68853,7.82025 0.8821,0.8595 1.69831,1.56272 1.81377,1.56272 0.11547,0 1.06502,-0.77274 2.1101,-1.7172 1.04509,-0.94445 2.44902,-2.1974 3.11986,-2.78431 l 1.21969,-1.06711 -1.21969,-0.64844 c -1.7409,-0.92554 -3.05477,-0.91807 -4.14956,0.0237 l -0.93082,0.80065 -1.692,-1.45968 c -0.93061,-0.80283 -2.63828,-2.03297 -3.79483,-2.73366 l -2.10282,-1.27398 1.36655,-0.76803 c 0.7516,-0.42243 2.45915,-1.62295 3.79454,-2.66782 l 2.428,-1.89978 1.22321,1.01418 c 1.50573,1.24844 1.7693,1.26192 2.81929,0.14426 0.6113,-0.6507 0.73003,-0.99405 0.443,-1.28107 -0.21567,-0.21568 -0.3199,-0.58033 -0.23164,-0.81034 0.0883,-0.23 -0.60065,-1.12583 -1.5309,-1.99071 -2.86404,-2.66278 -2.49706,-2.62827 -5.05664,-0.47563 z"
       id="path3073-9" />
    <path
       style="fill:#ffffff;stroke-width:1"
       d="m 167.29923,299.33797 c -1.29627,1.43239 -2.08758,5.2876 -1.19813,5.8373 0.20893,0.12914 0.75895,-0.12139 1.22226,-0.55659 l 0.84238,-0.79137 1.82939,1.64477 c 1.00617,0.90463 2.76056,2.21953 3.89866,2.922 l 2.06928,1.27724 -2.00562,1.20772 c -1.10309,0.66425 -2.84558,1.92533 -3.87223,2.80241 -1.59199,1.36008 -1.97226,1.53815 -2.58475,1.21036 -0.48332,-0.25867 -0.71814,-0.26461 -0.71814,-0.0182 0,0.20138 -0.24133,0.36615 -0.53629,0.36615 -0.29495,0 -0.79943,0.55182 -1.12105,1.22626 l -0.58476,1.22626 1.7886,1.7606 1.7886,1.76062 1.71998,-1.60029 c 2.85679,-2.65797 8.77741,-6.97255 11.60597,-8.45769 1.46467,-0.76904 2.65823,-1.47783 2.65234,-1.57509 -0.005,-0.0973 -0.83979,-0.56024 -1.85315,-1.02882 -2.79536,-1.29257 -6.10099,-3.50945 -10.26561,-6.88446 -2.07111,-1.67843 -3.82374,-3.05168 -3.89476,-3.05168 -0.071,0 -0.42334,0.32512 -0.78297,0.72248 z"
       id="path3071-8" />
    <path
       style="fill:#ffffff;stroke-width:1"
       d="m 129.11237,300.23102 c -2.75623,2.47543 -8.652,6.56975 -11.42568,7.9346 -1.38373,0.68088 -2.51794,1.31756 -2.52047,1.41483 -0.003,0.0973 1.29757,0.89311 2.88912,1.76854 3.3471,1.84107 5.97763,3.70541 10.115,7.1688 l 2.94876,2.46843 1.56102,-1.53203 c 1.70611,-1.67442 1.77034,-1.86061 1.11889,-3.24319 -0.43816,-0.9299 -1.74637,-1.54433 -2.41209,-1.1329 -0.19015,0.11751 -1.09805,-0.40027 -2.01756,-1.15066 -2.35374,-1.92081 -3.98671,-3.09411 -5.14525,-3.69688 l -0.99747,-0.51898 2.10189,-1.29736 c 1.15603,-0.71355 2.92511,-2.03751 3.93127,-2.94214 l 1.82938,-1.64477 0.83125,0.78092 c 0.46207,0.43409 0.92512,0.62903 1.04262,0.43891 0.24383,-0.39453 0.31463,-2.35741 0.12606,-3.49519 -0.13053,-0.78765 -1.60559,-2.94785 -1.99583,-2.92288 -0.11681,0.008 -1.00822,0.72836 -1.98091,1.60195 z"
       id="path3069-3" />
    <path
       id="path1074-9"
       style="fill:#ffffff;stroke-width:1"
       d="m 149.78199,292.28629 c -0.44381,5.3e-4 -1.15636,0.35527 -2.47479,1.15032 -2.31221,1.39432 -5.77504,2.80129 -8.3752,3.40341 -1.76621,0.40899 -1.8696,0.49751 -2.22725,1.89807 -0.5416,2.12093 -1.78294,5.15948 -2.33216,5.7087 -0.2598,0.2598 -1.21152,1.55155 -2.1146,2.87062 -1.30556,1.90698 -1.56176,2.5113 -1.2516,2.94969 2.12192,2.99919 5.00331,9.83468 5.00331,11.86905 0,0.6723 0.38079,0.86417 2.99259,1.50895 1.59242,0.39311 3.78434,1.11293 4.9692,1.62781 0.39228,-0.85629 0.75588,-1.66601 1.09812,-2.44275 -0.17292,-0.12376 -0.34169,-0.2465 -0.49557,-0.3638 -0.83405,-0.63578 -2.38043,-1.42793 -3.43649,-1.7601 -1.89675,-0.5966 -1.92695,-0.62807 -2.49442,-2.59312 -0.31595,-1.09407 -1.2641,-3.43003 -2.10685,-5.1909 l -1.5322,-3.20136 1.38958,-2.76572 c 0.76446,-1.52111 1.72011,-3.85183 2.12338,-5.17953 l 0.73329,-2.41432 2.35903,-0.77618 c 1.29743,-0.42717 3.57926,-1.38627 5.07101,-2.13114 l 2.71249,-1.35444 3.31763,1.55081 c 1.82487,0.85277 4.22228,1.81298 5.32732,2.13424 1.91443,0.55653 2.02683,0.65398 2.38281,2.06447 0.59377,2.3527 1.41869,4.50621 2.56676,6.69934 l 1.06609,2.03605 -1.43609,3.09283 c -0.78968,1.70111 -1.72379,4.0736 -2.07636,5.27203 -0.59305,2.01592 -0.73967,2.20868 -1.95905,2.57401 -0.7249,0.21718 -1.59109,0.66882 -1.92443,1.00407 -0.29609,0.29774 -1.37058,0.94944 -2.50424,1.52859 -0.27781,0.51784 -0.56908,1.05595 -0.87075,1.6092 0.206,0.0829 0.3935,0.1814 0.53123,0.28577 0.5645,0.42777 0.93424,0.38521 2.82981,-0.32504 1.19919,-0.44934 3.09533,-1.00529 4.21369,-1.23559 1.77087,-0.36468 2.06039,-0.54147 2.24173,-1.36684 0.91996,-4.18777 2.50116,-8.10522 4.36614,-10.81588 l 1.10122,-1.60042 -1.26349,-1.69343 c -0.69513,-0.93139 -1.69395,-2.22348 -2.21898,-2.87114 -0.56972,-0.70275 -1.0527,-1.84385 -1.19838,-2.82981 -0.79339,-5.36965 -1.10056,-6.33812 -1.70067,-5.36711 -0.26828,0.43407 -0.71934,0.38945 -3.07578,-0.30231 -3.02634,-0.8884 -8.35397,-3.26098 -8.74572,-3.89485 -0.14558,-0.23555 -0.31508,-0.36264 -0.58136,-0.36225 z" />
    <g
       aria-label="MASSIVE"
       id="text5089-1"
       style="font-size:35.7098px;line-height:1.25;font-family:Ferrum;-inkscape-font-specification:Ferrum;fill:#ffffff;stroke-width:0.264583">
      <path
         d="m 109.03167,231.19791 c -0.3571,2.14259 -0.99988,5.0708 -4.64228,20.24746 -3.32101,-12.56985 -3.9995,-15.28379 -4.963661,-20.24746 h -1.678361 c -0.749906,0 -2.214008,0 -3.213882,-0.0714 v 0.57136 l 0.03571,0.0714 c 0.571357,0.21426 1.571231,1.32126 1.571231,3.24959 v 10.82007 c 0,9.99875 -0.107129,11.49856 -0.249969,12.53414 -0.142839,0.92846 -0.607066,1.32126 -1.321262,1.53552 l -0.03571,0.0714 v 0.57136 c 0.999874,-0.0714 1.606941,-0.0714 2.356847,-0.0714 0.749906,0 1.356972,0 2.356847,0.0714 v -0.57136 l -0.03571,-0.0714 c -0.714196,-0.21426 -1.178424,-0.60706 -1.321263,-1.53552 -0.142839,-1.03558 -0.249968,-2.53539 -0.249968,-12.53414 0,-1.35697 0,-3.85666 -0.10713,-8.28467 2.071169,7.35622 4.142341,16.06941 5.499311,23.21137 l 0.0714,0.0357 h 0.57135 l 0.0714,-0.0357 c 1.28556,-6.42777 2.07117,-9.8202 3.10676,-14.24821 1.28555,-5.60644 2.24971,-8.96316 2.85678,-11.03433 -0.10713,1.42839 -0.10713,5.49931 -0.10713,10.35584 0,9.99875 -0.10713,11.49856 -0.24997,12.53414 -0.14284,0.92846 -0.60706,1.32126 -1.32126,1.53552 l -0.0357,0.0714 v 0.57136 c 0.99988,-0.0714 2.39256,-0.0714 3.14246,-0.0714 0.74991,0 2.14259,0 3.14247,0.0714 v -0.57136 l -0.0357,-0.0714 c -0.7142,-0.21426 -1.17843,-0.60706 -1.32127,-1.53552 -0.14284,-1.03558 -0.24997,-2.53539 -0.24997,-12.53414 0,-9.99874 0.10713,-11.49855 0.24997,-12.53414 0.14284,-0.92845 0.60707,-1.32126 1.32127,-1.53552 l 0.0357,-0.0714 v -0.57136 c -0.99988,0.0714 -4.49944,0.0714 -5.24934,0.0714 z"
         id="path1402" />
      <path
         d="m 122.8156,248.33862 c 0.53565,-0.0357 0.96416,-0.0714 1.74978,-0.0714 0.99987,0 1.4641,0.0357 1.99975,0.0714 0.57135,2.96391 1.28555,7.6419 1.60694,10.32013 0.10713,0.89275 -0.3571,1.17842 -0.89275,1.24984 l -0.0357,0.0714 v 0.57136 c 0.99988,-0.0714 2.14259,-0.0714 2.8925,-0.0714 0.7499,0 2.28543,0 3.2853,0.0714 v -0.57136 l -0.0357,-0.0714 c -0.78562,-0.14284 -1.28555,-0.60706 -1.4641,-1.53552 -1.78549,-8.57035 -2.99963,-16.17654 -4.67799,-27.81793 h -0.46422 c -0.74991,0.67848 -1.64265,1.24984 -2.42827,1.67836 l -0.17855,0.17855 c -3.2853,18.74764 -3.60669,20.49742 -4.82082,25.85389 -0.21426,0.89275 -0.64278,1.39268 -1.4641,1.64265 l -0.0357,0.0714 v 0.57136 c 0.99987,-0.0714 1.67836,-0.0714 2.42826,-0.0714 0.74991,0 1.03559,0 2.03546,0.0714 v -0.57136 l -0.0357,-0.0714 c -0.7499,-0.17855 -1.17842,-0.42851 -1.07129,-1.35697 0.42852,-3.53527 0.96416,-6.64202 1.60694,-10.213 z m 1.74978,-1.21414 c -0.53565,0 -1.03559,-0.0357 -1.60694,-0.0714 0.53565,-3.10675 1.21413,-7.21337 1.85691,-11.24858 0.42852,3.53527 0.99987,7.78473 1.60694,11.24858 -0.64278,0.0357 -1.28555,0.0714 -1.85691,0.0714 z"
         id="path1404" />
      <path
         d="m 142.70592,232.01924 c 0.96416,0 1.49981,0.53565 2.03546,1.71407 0.46422,0.99987 0.7499,2.46398 0.85703,4.07092 l 0.0714,0.0357 h 0.89275 c 0,-1.46411 0,-4.14234 0.0357,-5.64215 -0.96417,-0.96417 -2.03546,-1.42839 -3.78524,-1.42839 -2.92821,0 -5.32076,2.14258 -5.32076,7.6776 0,2.60682 1.07129,5.24934 3.39243,8.39181 2.46397,3.32101 3.07104,5.57072 3.07104,8.07041 0,3.46385 -1.07129,4.7494 -2.67823,4.7494 -0.96417,0 -1.64265,-0.53564 -2.28543,-1.78549 -0.49994,-0.96416 -0.82133,-2.32113 -1.0713,-3.99949 l -0.0714,-0.0357 h -0.89275 c 0,1.4641 0,4.07091 -0.0357,5.57073 0.99987,0.96416 2.49969,1.49981 4.32089,1.49981 3.21388,0 6.10637,-2.67824 6.10637,-8.10613 0,-2.74965 -1.32126,-5.60644 -3.89237,-8.96316 -2.17829,-2.82107 -2.89249,-4.49943 -2.89249,-8.35609 0,-1.85691 0.89275,-3.46385 2.14259,-3.46385 z"
         id="path1406" />
      <path
         d="m 157.66828,232.01924 c 0.96417,0 1.49981,0.53565 2.03546,1.71407 0.46423,0.99987 0.74991,2.46398 0.85704,4.07092 l 0.0714,0.0357 h 0.89274 c 0,-1.46411 0,-4.14234 0.0357,-5.64215 -0.96416,-0.96417 -2.03546,-1.42839 -3.78524,-1.42839 -2.9282,0 -5.32076,2.14258 -5.32076,7.6776 0,2.60682 1.0713,5.24934 3.39243,8.39181 2.46398,3.32101 3.07105,5.57072 3.07105,8.07041 0,3.46385 -1.0713,4.7494 -2.67824,4.7494 -0.96416,0 -1.64265,-0.53564 -2.28543,-1.78549 -0.49993,-0.96416 -0.82132,-2.32113 -1.07129,-3.99949 l -0.0714,-0.0357 H 151.919 c 0,1.4641 0,4.07091 -0.0357,5.57073 0.99988,0.96416 2.49969,1.49981 4.32089,1.49981 3.21388,0 6.10638,-2.67824 6.10638,-8.10613 0,-2.74965 -1.32127,-5.60644 -3.89237,-8.96316 -2.1783,-2.82107 -2.8925,-4.49943 -2.8925,-8.35609 0,-1.85691 0.89275,-3.46385 2.14259,-3.46385 z"
         id="path1408" />
      <path
         d="m 170.16666,231.19791 c -0.7499,0 -2.14259,0 -3.14246,-0.0714 v 0.57136 l 0.0357,0.0714 c 0.7142,0.21426 1.17842,0.60707 1.32126,1.53552 0.14284,1.03559 0.24997,2.5354 0.24997,12.53414 0,9.99875 -0.10713,11.49856 -0.24997,12.53414 -0.14284,0.92846 -0.60706,1.32126 -1.32126,1.53552 l -0.0357,0.0714 v 0.57136 c 0.99987,-0.0714 2.39256,-0.0714 3.14246,-0.0714 0.74991,0 2.14259,0 3.14247,0.0714 v -0.57136 l -0.0357,-0.0714 c -0.7142,-0.21426 -1.17843,-0.60706 -1.32127,-1.53552 -0.14284,-1.03558 -0.24997,-2.53539 -0.24997,-12.53414 0,-9.99874 0.10713,-11.49855 0.24997,-12.53414 0.14284,-0.92845 0.60707,-1.32126 1.32127,-1.53552 l 0.0357,-0.0714 v -0.57136 c -0.99988,0.0714 -2.39256,0.0714 -3.14247,0.0714 z"
         id="path1410" />
      <path
         d="m 188.34294,233.48334 c -0.64278,5.35647 -1.99975,12.35559 -3.32101,17.74777 -1.24985,-6.07066 -2.57111,-13.03408 -3.24959,-17.64064 -0.14284,-0.85704 0.0357,-1.53552 0.60706,-1.8212 l 0.0357,-0.0714 v -0.57136 c -0.99987,0.0714 -1.78549,0.0714 -2.53539,0.0714 -0.74991,0 -2.32114,0 -3.32102,-0.0714 v 0.57136 l 0.0357,0.0714 c 0.57136,0.21426 1.0713,0.78562 1.32127,1.71407 1.39268,5.49931 4.10662,18.212 5.8564,27.53226 h 0.64278 c 3.03533,-14.78386 4.85653,-22.81857 6.10638,-27.53226 0.21426,-0.85703 0.78561,-1.49981 1.35697,-1.71407 l 0.0357,-0.0714 v -0.57136 c -0.99988,0.0714 -1.39268,0.0714 -2.14259,0.0714 -0.7499,0 -1.03558,0 -2.03546,-0.0714 v 0.57136 l 0.0357,0.0714 c 0.42852,0.21426 0.67849,0.89275 0.57136,1.71407 z"
         id="path1412" />
      <path
         d="m 198.19878,231.19791 c -0.7499,0 -2.14259,0 -3.14246,-0.0714 v 0.57136 l 0.0357,0.0714 c 0.7142,0.21426 1.17842,0.60707 1.32126,1.53552 0.14284,1.03559 0.24997,2.5354 0.24997,12.53414 0,9.99875 -0.10713,11.49856 -0.24997,12.53414 -0.14284,0.92846 -0.60706,1.32126 -1.32126,1.53552 l -0.0357,0.0714 v 0.57136 c 0.99987,-0.0714 2.39256,-0.0714 3.14246,-0.0714 3.42814,0 5.71357,0 7.82045,0.0714 0,-1.74978 0.10713,-6.21351 0.21426,-8.21325 h -0.89275 l -0.0714,0.0357 c -0.32139,2.35684 -0.82132,4.10662 -1.32126,5.1065 -0.67849,1.32126 -1.28555,1.85691 -2.46398,1.85691 -0.85703,0 -1.49981,-0.32139 -1.57123,-1.24985 -0.10713,-1.42839 -0.17855,-4.85653 -0.17855,-11.81994 h 1.17843 c 0.7499,0 1.32126,0.32139 1.64265,1.03558 0.32139,0.7142 0.53565,1.85691 0.67848,3.07105 l 0.0714,0.0357 h 0.89275 c -0.0357,-0.82133 -0.0714,-3.07105 -0.0714,-4.64228 0,-1.57123 0.0357,-3.82095 0.0714,-4.64227 h -0.89275 l -0.0714,0.0357 c -0.14283,1.21413 -0.35709,2.35684 -0.67848,3.07104 -0.32139,0.7142 -0.89275,1.03558 -1.64265,1.03558 h -1.17843 c 0,-7.96328 0.0357,-10.85577 0.14284,-12.92694 h 0.85704 c 1.39268,0 2.21401,0.60706 2.89249,1.92833 0.49994,0.99987 0.99988,2.67823 1.32126,5.03508 l 0.0714,0.0357 h 0.89275 c -0.10713,-1.99975 -0.21426,-6.85628 -0.21426,-8.21326 -2.21401,0.0714 -5.28505,0.0714 -7.49906,0.0714 z"
         id="path1414" />
    </g>
    <path
       d="m 77.5714,299.64239 0.03571,0.0901 v 0.72111 q -0.999875,-0.0901 -4.892247,-0.0901 l -0.07142,-0.0901 q -1.071294,-9.32946 -1.571233,-15.18854 -0.07141,-1.08169 -0.214258,-1.71265 -0.14284,-0.67605 -0.571358,-1.17182 -0.392808,-0.54085 -1.071295,-0.54085 h -0.928455 q 0,13.7463 0.249969,16.04487 0.178549,1.4873 1.321263,1.93799 l 0.03571,0.0901 v 0.72112 q -0.999875,-0.0901 -3.142465,-0.0901 -2.142589,0 -3.142464,0.0901 v -0.72112 l 0.03571,-0.0901 q 1.142715,-0.45069 1.321263,-1.93799 0.249969,-2.29857 0.249969,-15.81952 0,-13.52096 -0.249969,-15.8195 -0.178548,-1.48733 -1.321263,-1.93802 l -0.03571,-0.0901 v -0.72111 q 0.999875,0.0901 3.142464,0.0901 1.535523,0 3.178175,-0.0901 3.071046,-0.13515 4.642278,2.29857 1.571233,2.3887 1.571233,6.17457 0,3.51545 -1.321264,5.94921 -1.285554,2.3887 -3.463854,2.83941 1.714073,0.18028 2.35685,1.12675 0.642776,0.90138 0.892745,3.33516 0.785616,7.34638 1.571232,12.34913 0.107136,0.81126 0.499937,1.44224 0.428518,0.63096 0.892747,0.81125 z m -8.32039,-19.24483 q 3.356724,0 3.356724,-8.06749 0,-7.48159 -3.321014,-7.48159 h -0.857037 q -0.142838,3.47037 -0.142838,15.54908 z"
       id="path10445-6"
       style="font-size:26.7119px;line-height:1.25;font-family:Ferrum;-inkscape-font-specification:Ferrum;fill:#ffffff;stroke-width:0.264583" />
    <path
       d="m 84.641859,282.73518 q -1.142715,7.09796 -1.606942,11.53419 -0.07141,0.72592 0.178549,1.04857 0.249969,0.32263 0.892746,0.48394 l 0.03571,0.0806 v 0.64527 q -0.999876,-0.0806 -2.035461,-0.0806 -1.428393,0 -2.428268,0.0806 v -0.64527 l 0.03571,-0.0806 q 1.142715,-0.40328 1.464103,-1.85513 1.285554,-6.37206 4.820826,-29.19847 l 0.17855,-0.20165 q 1.428393,-0.88724 2.428268,-1.89548 h 0.464228 q 2.499688,19.68073 4.677988,31.41658 0.249968,1.49218 1.464103,1.73415 l 0.03571,0.0806 v 0.64527 q -0.999875,-0.0806 -3.285304,-0.0806 -1.892621,0 -2.892496,0.0806 v -0.64527 l 0.03571,-0.0806 q 1.035585,-0.16131 0.892745,-1.41151 -0.642777,-5.92841 -1.606941,-11.65519 -1.071295,-0.0806 -1.999752,-0.0806 -0.678486,0 -1.749782,0.0806 z m 1.749781,-1.37121 q 0.571358,0 1.856911,-0.0806 -0.785616,-5.0815 -1.606941,-12.70376 -0.999876,7.09797 -1.856911,12.70376 1.142714,0.0806 1.606941,0.0806 z"
       id="path10447-4"
       style="font-size:26.7119px;line-height:1.25;font-family:Ferrum;-inkscape-font-specification:Ferrum;fill:#ffffff;stroke-width:0.264583" />
    <path
       d="m 109.06734,277.93494 q 0,-10.71295 -0.24996,-12.53414 -0.17855,-1.17844 -1.32127,-1.53554 l -0.0357,-0.0714 v -0.57136 q 0.99988,0.0714 2.35685,0.0714 1.35698,0 2.35685,-0.0714 v 0.57136 l -0.0357,0.0714 q -1.14271,0.3571 -1.32126,1.53554 -0.24997,1.82119 -0.24997,12.53414 0,10.74867 0.0714,15.06956 h -0.57136 l -0.0714,-0.0357 q -4.60656,-13.78399 -8.28468,-23.31851 0.10714,4.42802 0.10714,8.28468 0,10.71294 0.24997,12.53415 0.17855,1.17842 1.32126,1.53552 l 0.0357,0.0714 v 0.57135 q -0.99988,-0.0714 -2.35685,-0.0714 -1.356973,0 -2.356848,0.0714 v -0.57135 l 0.03571,-0.0714 q 1.142715,-0.3571 1.321258,-1.53552 0.24997,-1.82121 0.24997,-12.53415 V 267.1149 q 0,-1.28556 -0.535643,-2.1426 -0.499938,-0.89274 -1.035585,-1.10701 l -0.03571,-0.0714 v -0.57135 q 0.999875,0.0714 3.213888,0.0714 h 1.39268 q 0.57136,2.67825 4.10663,12.17706 1.24984,3.28531 1.74978,5.96354 -0.10713,-1.8212 -0.10713,-3.49956 z"
       id="path10449-6"
       style="font-size:26.7119px;line-height:1.25;font-family:Ferrum;-inkscape-font-specification:Ferrum;fill:#ffffff;stroke-width:0.264583" />
    <path
       d="m 119.99451,263.29391 q 1.74978,0 2.96392,-0.0714 3.57098,-0.17855 5.64215,3.14247 2.07117,3.321 2.07117,10.28443 0,4.39231 -0.67849,7.6419 -0.67848,3.21388 -1.89262,5.03509 -1.17842,1.8212 -2.67824,2.64252 -1.4641,0.82132 -3.17817,0.67849 -0.92846,-0.0714 -2.24972,-0.0714 -2.14259,0 -3.14246,0.0714 v -0.57135 l 0.0357,-0.0714 q 1.14272,-0.3571 1.32127,-1.53552 0.24996,-1.82121 0.24996,-12.53415 0,-10.71295 -0.24996,-12.53414 -0.17855,-1.17844 -1.32127,-1.53554 l -0.0357,-0.0714 v -0.57135 q 0.99987,0.0714 3.14246,0.0714 z m 3.10676,28.24648 q 1.24984,0 2.07117,-1.21414 0.82132,-1.24984 1.28555,-4.49944 0.49994,-3.2853 0.49994,-8.7489 0,-6.99912 -1.03559,-9.89163 -0.99987,-2.89249 -2.99962,-2.89249 -0.7142,0 -1.32127,0.10708 -0.0714,1.4284 -0.0714,13.53403 0,8.7132 0.14284,12.24848 0.0714,1.35697 1.42839,1.35697 z"
       id="path10451-3"
       style="font-size:26.7119px;line-height:1.25;font-family:Ferrum;-inkscape-font-specification:Ferrum;fill:#ffffff;stroke-width:0.264583" />
    <path
       d="m 142.20596,262.86539 q 3.14246,0 4.89225,3.89238 1.78549,3.85665 1.78549,10.82007 0,7.6062 -1.92833,11.53428 -1.89262,3.89238 -5.21363,3.89238 -3.07105,0 -4.82083,-3.67812 -1.71407,-3.71383 -1.71407,-11.03434 0,-7.42764 1.8212,-11.42715 1.8212,-3.9995 5.17792,-3.9995 z m -0.14284,28.88926 q 1.71408,0 2.39257,-3.10676 0.71418,-3.10675 0.71418,-10.35585 0,-7.49907 -0.71418,-10.82007 -0.67849,-3.35673 -2.60683,-3.35673 -1.60694,0 -2.28542,3.07104 -0.64278,3.03534 -0.64278,10.39156 0,5.57074 0.32139,8.64178 0.32139,3.07105 0.96416,4.32089 0.67849,1.21414 1.85691,1.21414 z"
       id="path10453-81"
       style="font-size:26.7119px;line-height:1.25;font-family:Ferrum;-inkscape-font-specification:Ferrum;fill:#ffffff;stroke-width:0.264583" />
    <path
       d="m 167.41704,263.29391 q 4.24946,0 5.24933,-0.0714 v 0.57136 l -0.0357,0.0714 q -1.14272,0.3571 -1.32127,1.53554 -0.24996,1.82119 -0.24996,12.53414 0,10.71295 0.24996,12.53415 0.17855,1.17842 1.32127,1.53552 l 0.0357,0.0714 v 0.57136 q -0.99987,-0.0714 -3.14245,-0.0714 -2.1426,0 -3.14247,0.0714 V 292.076 l 0.0357,-0.0714 q 1.14271,-0.3571 1.32126,-1.53552 0.24998,-1.8212 0.24998,-12.53415 0,-8.92745 0.10708,-10.35585 -1.49981,5.1065 -2.85678,11.03434 -1.7855,7.60619 -3.10676,14.24822 l -0.0714,0.0357 h -0.57136 l -0.0714,-0.0357 q -2.1426,-11.32001 -5.49933,-23.21139 0.10708,4.42802 0.10708,8.28468 0,10.71295 0.24997,12.53415 0.17855,1.17842 1.32126,1.53552 l 0.0357,0.0714 v 0.57136 q -0.99987,-0.0714 -2.35685,-0.0714 -1.35697,0 -2.35685,0.0714 V 292.076 l 0.0357,-0.0714 q 1.14272,-0.3571 1.32127,-1.53552 0.24996,-1.8212 0.24996,-12.53415 v -10.82007 q 0,-1.28556 -0.53565,-2.1426 -0.49994,-0.89274 -1.03558,-1.10701 l -0.0357,-0.0714 v -0.57136 q 0.99988,0.0714 3.21388,0.0714 h 1.67837 q 1.07129,5.49932 4.96367,20.24747 4.14234,-17.28355 4.64228,-20.24747 z"
       id="path10455-3"
       style="font-size:26.7119px;line-height:1.25;font-family:Ferrum;-inkscape-font-specification:Ferrum;fill:#ffffff;stroke-width:0.264583" />
    <path
       d="m 187.95013,277.93494 q 0,-10.71295 -0.24996,-12.53414 -0.17855,-1.17844 -1.32127,-1.53554 l -0.0357,-0.0714 v -0.57136 q 0.99987,0.0714 2.35684,0.0714 1.35697,0 2.35686,-0.0714 v 0.57136 l -0.0357,0.0714 q -1.14272,0.3571 -1.32126,1.53554 -0.24998,1.82119 -0.24998,12.53414 0,10.74867 0.0714,15.06956 H 188.95 l -0.0714,-0.0357 q -4.60657,-13.78399 -8.28468,-23.31851 0.10708,4.42802 0.10708,8.28468 0,10.71294 0.24996,12.53415 0.17855,1.17842 1.32127,1.53552 l 0.0357,0.0714 v 0.57135 q -0.99987,-0.0714 -2.35684,-0.0714 -1.35699,0 -2.35686,0.0714 v -0.57135 l 0.0357,-0.0714 q 1.14271,-0.3571 1.32126,-1.53552 0.24998,-1.82121 0.24998,-12.53415 V 267.1149 q 0,-1.28556 -0.53565,-2.1426 -0.49994,-0.89274 -1.03559,-1.10701 l -0.0357,-0.0714 v -0.57135 q 0.99987,0.0714 3.21389,0.0714 h 1.39269 q 0.57135,2.67825 4.10662,12.17706 1.24985,3.28531 1.74979,5.96354 -0.10708,-1.8212 -0.10708,-3.49956 z"
       id="path10457-21"
       style="font-size:26.7119px;line-height:1.25;font-family:Ferrum;-inkscape-font-specification:Ferrum;fill:#ffffff;stroke-width:0.264583" />
    <path
       d="m 198.87731,263.29391 q 5.28505,0 7.49907,-0.0714 0,4.21375 0.21425,8.21326 h -0.89275 l -0.0714,-0.0357 q -0.46424,-3.28531 -1.32127,-5.03509 -0.99988,-1.92833 -2.8925,-1.92833 h -0.85703 q -0.14284,2.74965 -0.14284,12.92695 h 1.17842 q 1.17842,0 1.64265,-1.03558 0.42852,-0.96416 0.67848,-3.07105 l 0.0714,-0.0357 h 0.89275 q -0.0714,1.64265 -0.0714,4.64228 0,2.99962 0.0714,4.64228 h -0.89275 l -0.0714,-0.0357 q -0.24996,-2.10689 -0.67848,-3.07105 -0.46423,-1.03558 -1.64265,-1.03558 h -1.17842 q 0,9.4274 0.17855,11.81996 0.10708,1.24983 1.57123,1.24983 0.85704,0 1.39269,-0.42851 0.53563,-0.42852 1.07128,-1.4284 0.85704,-1.71407 1.32127,-5.1065 l 0.0714,-0.0357 h 0.89274 q -0.21426,3.9995 -0.21426,8.21327 -2.10688,-0.0714 -7.82044,-0.0714 -2.1426,0 -3.14247,0.0714 v -0.57136 l 0.0357,-0.0714 q 1.14272,-0.3571 1.32127,-1.53552 0.24997,-1.8212 0.24997,-12.53415 0,-10.71295 -0.24997,-12.53414 -0.17855,-1.17844 -1.32127,-1.53554 l -0.0357,-0.0714 v -0.57136 q 0.99987,0.0714 3.14247,0.0714 z"
       id="path10459-8"
       style="font-size:26.7119px;line-height:1.25;font-family:Ferrum;-inkscape-font-specification:Ferrum;fill:#ffffff;stroke-width:0.264583" />
    <path
       d="m 217.55349,264.30465 q -0.92844,0 -1.53552,1.16954 -0.60706,1.12924 -0.60706,2.7424 0,3.18603 0.60706,5.08151 0.60708,1.89548 2.28543,4.35558 3.89237,5.72677 3.89237,10.12266 0,4.35558 -1.78548,6.77533 -1.74979,2.37945 -4.32089,2.37945 -2.74966,0 -4.32089,-1.69383 0.0357,-1.69384 0.0357,-6.29139 h 0.89275 l 0.0714,0.0404 q 0.39281,3.06504 1.0713,4.51689 0.92846,2.01646 2.28543,2.01646 2.67823,0 2.67823,-5.36379 0,-2.25845 -0.67848,-4.35558 -0.64278,-2.09713 -2.39256,-4.75887 -3.39243,-5.20249 -3.39243,-9.47741 0,-4.43623 1.4641,-6.53336 1.49982,-2.13745 3.85666,-2.13745 2.35685,0 3.78524,1.61318 -0.0357,1.69383 -0.0357,6.37204 h -0.89275 l -0.0714,-0.0404 q -0.17855,-2.94404 -0.85705,-4.59755 -0.78561,-1.93581 -2.03546,-1.93581 z"
       id="path10461-0"
       style="font-size:26.7119px;line-height:1.25;font-family:Ferrum;-inkscape-font-specification:Ferrum;fill:#ffffff;stroke-width:0.264583" />
    <path
       d="m 232.51588,264.44285 q -0.92846,0 -1.53553,1.30701 -0.60707,1.26196 -0.60707,3.06475 0,3.56053 0.60707,5.67881 0.60707,2.11828 2.28543,4.86755 3.89238,6.39992 3.89238,11.31251 0,4.86756 -1.7855,7.57174 -1.74978,2.65913 -4.32089,2.65913 -2.74966,0 -4.32089,-1.89293 0.0357,-1.89294 0.0357,-7.0309 h 0.89275 l 0.0714,0.0451 q 0.39281,3.42532 1.0713,5.04782 0.92846,2.2535 2.28543,2.2535 2.67823,0 2.67823,-5.99429 0,-2.52391 -0.67848,-4.86755 -0.64278,-2.34364 -2.39256,-5.31824 -3.39243,-5.81402 -3.39243,-10.59141 0,-4.95769 1.4641,-7.30132 1.49982,-2.3887 3.85666,-2.3887 2.35685,0 3.78525,1.8028 -0.0357,1.89294 -0.0357,7.12104 h -0.89274 l -0.0714,-0.0451 q -0.17855,-3.29011 -0.85703,-5.13797 -0.78562,-2.16335 -2.03546,-2.16335 z"
       id="path10463-43"
       style="font-size:26.7119px;line-height:1.25;font-family:Ferrum;-inkscape-font-specification:Ferrum;fill:#ffffff;stroke-width:0.264583" />
    <path
       style="color:#000000;font-size:34.2413px;font-family:Ferrum;-inkscape-font-specification:Ferrum;fill:#ffffff;stroke:none;stroke-width:6;-inkscape-stroke:none;paint-order:stroke fill markers"
       d="m 144.24838,306.35121 -0.0916,0.0457 h -1.14439 q -0.18311,-2.28877 -0.18311,-3.79938 3.02119,-3.02117 7.23253,-3.02117 2.97541,0 4.89798,2.24299 1.92258,2.24301 1.92258,5.40152 0,2.74652 -1.28172,5.9966 -1.23593,3.20428 -5.0353,10.16215 -2.92963,5.40152 -4.98953,10.57414 4.98953,0 8.19381,-0.13732 1.19016,-0.0916 1.78525,-0.59509 0.59508,-0.5493 0.96129,-2.01411 l 0.0916,-0.0457 h 1.14438 q -0.50352,3.29585 -0.54929,6.59168 -2.79231,-0.0916 -7.8734,-0.0916 -5.44728,0 -8.23959,0.0916 l -0.0915,-0.0916 q 2.65498,-4.53177 4.71488,-9.01778 3.61626,-7.69029 4.98953,-11.85585 1.41904,-4.16557 1.41904,-7.59874 0,-3.15851 -1.19016,-5.17263 -1.14439,-2.01412 -3.15851,-2.01412 -1.78525,0 -2.83808,1.64791 -0.54932,0.86974 -0.68664,2.70076 z"
       id="path2579" />
  </g>
</svg>
